<svg width="155" height="20" viewBox="0 0 155 20" fill="none" xmlns="http://www.w3.org/2000/svg">
<path d="M2.41936 5C3.73656 5 4.83871 3.89785 4.83871 2.58065C4.83871 1.26344 3.73656 0.16129 2.41936 0.16129C1.10215 0.16129 0 1.26344 0 2.58065C0 3.89785 1.10215 5 2.41936 5ZM0.403226 19.6237H4.43548V6.1828H0.403226V19.6237Z" fill="white"/>
<path d="M15.2625 5.80645C13.4883 5.80645 12.1442 6.45161 11.4184 7.44624V6.1828H7.38617V19.6237H11.4184V12.2849C11.4184 10.3763 12.4399 9.51613 13.9184 9.51613C15.2088 9.51613 16.2571 10.2957 16.2571 11.9624V19.6237H20.2894V11.371C20.2894 7.74194 17.9776 5.80645 15.2625 5.80645Z" fill="white"/>
<path d="M31.3712 6.1828L28.5755 14.7043L25.7798 6.1828H21.3174L26.2905 19.6237H30.8604L35.8335 6.1828H31.3712Z" fill="white"/>
<path d="M40.3902 14.5161H49.9332C50.0407 14.0054 50.0945 13.4677 50.0945 12.9032C50.0945 8.84409 47.1913 5.80645 43.2665 5.80645C39.0192 5.80645 36.116 8.89785 36.116 12.9032C36.116 16.9086 38.9655 20 43.5622 20C46.116 20 48.1053 19.0591 49.4225 17.2312L46.1967 15.3763C45.659 15.9677 44.7182 16.3979 43.616 16.3979C42.1375 16.3979 40.901 15.914 40.3902 14.5161ZM40.3096 11.5054C40.6859 10.1344 41.7074 9.38172 43.2397 9.38172C44.4493 9.38172 45.659 9.94624 46.0891 11.5054H40.3096Z" fill="white"/>
<path d="M64.3366 19.6237L59.5247 12.7957L64.1753 6.1828H59.5516L57.2129 9.51613L54.8742 6.1828H50.2505L54.9011 12.7957L50.0893 19.6237H54.7129L57.2129 16.0753L59.7129 19.6237H64.3366Z" fill="white"/>
<path d="M87.3278 6.1828L85.3923 13.3871L83.2955 6.1828H79.5321L77.4353 13.3871L75.4998 6.1828H71.1988L75.4998 19.6237H79.2633L81.4138 12.4462L83.5643 19.6237H87.3278L91.6289 6.1828H87.3278Z" fill="white"/>
<path d="M96.3063 14.5161H105.849C105.957 14.0054 106.011 13.4677 106.011 12.9032C106.011 8.84409 103.107 5.80645 99.1826 5.80645C94.9353 5.80645 92.0321 8.89785 92.0321 12.9032C92.0321 16.9086 94.8816 20 99.4783 20C102.032 20 104.021 19.0591 105.339 17.2312L102.113 15.3763C101.575 15.9677 100.634 16.3979 99.5321 16.3979C98.0536 16.3979 96.817 15.914 96.3063 14.5161ZM96.2256 11.5054C96.602 10.1344 97.6235 9.38172 99.1557 9.38172C100.365 9.38172 101.575 9.94624 102.005 11.5054H96.2256Z" fill="white"/>
<path d="M117.924 6.1828V7.44624C117.037 6.42473 115.72 5.80645 113.919 5.80645C110.398 5.80645 107.494 8.89785 107.494 12.9032C107.494 16.9086 110.398 20 113.919 20C115.72 20 117.037 19.3817 117.924 18.3602V19.6237H121.957V6.1828H117.924ZM114.726 16.1828C112.871 16.1828 111.527 14.9194 111.527 12.9032C111.527 10.8871 112.871 9.62366 114.726 9.62366C116.58 9.62366 117.924 10.8871 117.924 12.9032C117.924 14.9194 116.58 16.1828 114.726 16.1828Z" fill="white"/>
<path d="M124.915 19.6237H128.947V0H124.915V19.6237Z" fill="white"/>
<path d="M139.774 10.0538V6.1828H137.005V2.41935L132.973 3.62903V6.1828H130.823V10.0538H132.973V14.8118C132.973 18.5753 134.505 20.1613 139.774 19.6237V15.9677C138 16.0753 137.005 15.9677 137.005 14.8118V10.0538H139.774Z" fill="white"/>
<path d="M149.934 5.80645C148.159 5.80645 146.815 6.45161 146.09 7.44624V0.806451H142.057V19.6237H146.09V12.2849C146.09 10.3763 147.111 9.51613 148.59 9.51613C149.88 9.51613 150.928 10.2957 150.928 11.9624V19.6237H154.961V11.371C154.961 7.74194 152.649 5.80645 149.934 5.80645Z" fill="white"/>
</svg>
